<?xml version="1.0" encoding="utf-8"?>
<svg width="265px" height="48px" viewbox="0 0 265 48" version="1.1" xmlns:xlink="http://www.w3.org/1999/xlink" xmlns="http://www.w3.org/2000/svg">
  <defs>
    <path d="M0 47.9838L265 47.9838L265 0L0 0L0 47.9838Z" id="path_1" />
    <clipPath id="mask_1">
      <use xlink:href="#path_1" />
    </clipPath>
  </defs>
  <g id="Logo">
    <path d="M0 0L0 8L6 8L6 6.50085L1.80489 6.50085L1.80489 4.67768L5.91113 4.67768L5.91113 3.17853L1.80489 3.17853L1.80489 1.49893L6 1.49893L6 0L0 0Z" transform="translate(224 39.926025)" id="Fill-1" fill="#2C2A29" fill-rule="evenodd" stroke="none" />
    <g id="Group-30">
      <path d="M0 4.27283C0 1.72124 1.87046 0 4.29587 0C6.05768 0 7.08301 0.978155 7.65055 2.01842L6.17803 2.7615C5.84038 2.093 5.11649 1.56029 4.29587 1.56029C2.82335 1.56029 1.76203 2.71231 1.76203 4.27283C1.76203 5.83334 2.82335 6.98469 4.29587 6.98469C5.11649 6.98469 5.84038 6.4522 6.17803 5.7837L7.65055 6.51431C7.08301 7.54211 6.05768 8.5452 4.29587 8.5452C1.87046 8.5452 0 6.8115 0 4.27283" transform="translate(211.63774 39.438477)" id="Fill-2" fill="#2C2A29" fill-rule="evenodd" stroke="none" />
      <path d="M5.5502 8.26094L1.71323 2.87326L1.71323 8.26094L0 8.26094L0 0L1.76159 0L5.49036 5.18978L5.49036 0L7.20336 0L7.20336 8.26094L5.5502 8.26094Z" transform="translate(198.39804 39.574463)" id="Fill-4" fill="#2C2A29" fill-rule="evenodd" stroke="none" />
      <path d="M0 8.26094L0 0L5.69529 0L5.69529 1.54805L1.71323 1.54805L1.71323 3.2822L5.61071 3.2822L5.61071 4.83025L1.71323 4.83025L1.71323 6.71289L5.69529 6.71289L5.69529 8.26094L0 8.26094Z" transform="translate(186.53412 39.574463)" id="Fill-6" fill="#2C2A29" fill-rule="evenodd" stroke="none" />
      <path d="M0 47.9838L265 47.9838L265 0L0 0L0 47.9838Z" id="Clip-9" fill="none" fill-rule="evenodd" stroke="none" />
      <g clip-path="url(#mask_1)">
        <path d="M0 8.26094L1.71323 8.26094L1.71323 0L0 0L0 8.26094Z" transform="translate(178.39955 39.57422)" id="Fill-8" fill="#2C2A29" fill-rule="evenodd" stroke="none" />
        <path d="M4.71788 2.65048C4.71788 1.96951 4.19893 1.5481 3.52296 1.5481L1.71323 1.5481L1.71323 3.77756L3.52296 3.77756C4.19893 3.77756 4.71788 3.35683 4.71788 2.65048L4.71788 2.65048ZM4.5485 8.26094L2.96778 5.32579L1.71323 5.32579L1.71323 8.26094L0 8.26094L0 0L3.76433 0C5.44177 0 6.47969 1.12732 6.47969 2.66289C6.47969 4.11211 5.57428 4.90483 4.70574 5.1152L6.52783 8.26094L4.5485 8.26094Z" transform="translate(165.81184 39.574463)" id="Fill-10" fill="#2C2A29" fill-rule="evenodd" stroke="none" />
        <path d="M6.64842 4.27284C6.64842 2.72434 5.69552 1.5603 4.21108 1.5603C2.71493 1.5603 1.7616 2.72434 1.7616 4.27284C1.7616 5.80842 2.71493 6.9847 4.21108 6.9847C5.69552 6.9847 6.64842 5.80842 6.64842 4.27284M0 4.27283C0 1.78335 1.77373 0 4.21107 0C6.63626 0 8.41022 1.78335 8.41022 4.27283C8.41022 6.76185 6.63626 8.5452 4.21107 8.5452C1.77373 8.5452 0 6.76185 0 4.27283" transform="translate(47.281128 39.438477)" id="Fill-11" fill="#2C2A29" fill-rule="evenodd" stroke="none" />
        <path d="M0 8.26094L0 0L5.69529 0L5.69529 1.54805L1.71323 1.54805L1.71323 3.2822L5.61071 3.2822L5.61071 4.83025L1.71323 4.83025L1.71323 6.71289L5.69529 6.71289L5.69529 8.26094L0 8.26094Z" transform="translate(153.94785 39.574463)" id="Fill-12" fill="#2C2A29" fill-rule="evenodd" stroke="none" />
        <path d="M4.71811 2.66294C4.71811 1.96951 4.19915 1.5481 3.52318 1.5481L1.71323 1.5481L1.71323 3.76532L3.52318 3.76532C4.19915 3.76532 4.71811 3.34437 4.71811 2.66294L4.71811 2.66294ZM0 8.26094L0 0L3.76455 0C5.51399 0 6.46755 1.21414 6.46755 2.66289C6.46755 4.09986 5.5025 5.31332 3.76455 5.31332L1.71323 5.31332L1.71323 8.26094L0 8.26094Z" transform="translate(141.57712 39.57422)" id="Fill-13" fill="#2C2A29" fill-rule="evenodd" stroke="none" />
        <path d="M0 4.27283C0 1.72124 1.87002 0 4.29521 0C6.05724 0 7.08279 0.978155 7.64989 2.01842L6.17803 2.7615C5.83972 2.093 5.11605 1.56029 4.29521 1.56029C2.82335 1.56029 1.76159 2.71231 1.76159 4.27283C1.76159 5.83334 2.82335 6.98469 4.29521 6.98469C5.11605 6.98469 5.83972 6.4522 6.17803 5.7837L7.64989 6.51431C7.08279 7.54211 6.05724 8.5452 4.29521 8.5452C1.87002 8.5452 0 6.8115 0 4.27283" transform="translate(34.161926 39.438477)" id="Fill-14" fill="#2C2A29" fill-rule="evenodd" stroke="none" />
        <path d="M0 8.26094L0 0L5.69551 0L5.69551 1.54805L1.71367 1.54805L1.71367 3.2822L5.61071 3.2822L5.61071 4.83025L1.71367 4.83025L1.71367 8.26094L0 8.26094Z" transform="translate(61.727722 39.574463)" id="Fill-15" fill="#2C2A29" fill-rule="evenodd" stroke="none" />
        <path d="M0 8.26094L0 0L5.69551 0L5.69551 1.54805L1.71345 1.54805L1.71345 3.2822L5.61071 3.2822L5.61071 4.83025L1.71345 4.83025L1.71345 8.26094L0 8.26094Z" transform="translate(73.44678 39.574463)" id="Fill-16" fill="#2C2A29" fill-rule="evenodd" stroke="none" />
        <path d="M0 8.26094L0 0L5.69529 0L5.69529 1.54805L1.71323 1.54805L1.71323 3.2822L5.61071 3.2822L5.61071 4.83025L1.71323 4.83025L1.71323 6.71289L5.69529 6.71289L5.69529 8.26094L0 8.26094Z" transform="translate(85.16623 39.574463)" id="Fill-17" fill="#2C2A29" fill-rule="evenodd" stroke="none" />
        <path d="M0 8.26094L0 0L5.69529 0L5.69529 1.54805L1.71323 1.54805L1.71323 3.2822L5.61071 3.2822L5.61071 4.83025L1.71323 4.83025L1.71323 6.71289L5.69529 6.71289L5.69529 8.26094L0 8.26094Z" transform="translate(97.03018 39.574463)" id="Fill-18" fill="#2C2A29" fill-rule="evenodd" stroke="none" />
        <path d="M0 8.26094L0 0L5.69529 0L5.69529 1.54805L1.71345 1.54805L1.71345 3.2822L5.61049 3.2822L5.61049 4.83025L1.71345 4.83025L1.71345 6.71289L5.69529 6.71289L5.69529 8.26094L0 8.26094Z" transform="translate(116.823456 39.574463)" id="Fill-19" fill="#2C2A29" fill-rule="evenodd" stroke="none" />
        <path d="M6.08175 8.26094L4.06642 5.23874L2.03895 8.26094L0 8.26094L2.9203 4.02528L0.181083 0L2.22026 0L4.06642 2.8243L5.8883 0L7.95155 0L5.21255 4.01282L8.13285 8.26094L6.08175 8.26094Z" transform="translate(127.85437 39.574463)" id="Fill-20" fill="#2C2A29" fill-rule="evenodd" stroke="none" />
        <path d="M9.4415 16.202L17.0304 16.202L13.2182 7.67993L9.4415 16.202ZM18.8477 20.554L7.62427 20.554L5.3795 25.7839L0 25.7839L11.9709 0L14.5006 0L26.5075 25.7839L21.1278 25.7839L18.8477 20.554Z" transform="translate(3.0517578E-05 0.2927246)" id="Fill-21" fill="#2C2A29" fill-rule="evenodd" stroke="none" />
        <path d="M21.5196 13.1668C21.5196 8.63149 17.8498 4.90112 13.3607 4.90112C8.87155 4.90112 5.23752 8.63149 5.23752 13.1668C5.23752 17.738 8.87155 21.4318 13.3607 21.4318C17.8498 21.4318 21.5196 17.738 21.5196 13.1668M26.7215 13.1669C26.7215 20.4445 20.7714 26.3331 13.3606 26.3331C5.98547 26.3331 0 20.4445 0 13.1669C0 5.88865 5.98547 0 13.3606 0C20.7714 0 26.7215 5.88865 26.7215 13.1669" transform="translate(58.888 0.036376953)" id="Fill-22" fill="#2C2A29" fill-rule="evenodd" stroke="none" />
        <path d="M25.7953 0L25.7953 25.7839L20.6647 25.7839L20.6647 11.5207L12.8978 22.7116L5.09529 11.5207L5.09529 25.7839L0 25.7839L0 0L2.49409 0L12.8978 14.775L23.3012 0L25.7953 0Z" transform="translate(92.5177 0.2927246)" id="Fill-23" fill="#2C2A29" fill-rule="evenodd" stroke="none" />
        <path d="M9.44128 16.202L17.0304 16.202L13.218 7.67993L9.44128 16.202ZM18.8477 20.554L7.62427 20.554L5.3795 25.7839L0 25.7839L11.9712 0L14.5006 0L26.5077 25.7839L21.1278 25.7839L18.8477 20.554Z" transform="translate(124.010254 0.2927246)" id="Fill-24" fill="#2C2A29" fill-rule="evenodd" stroke="none" />
        <path d="M19.667 18.0307L23.6212 21.4684C21.1631 24.4677 17.4578 26.3694 13.2538 26.3694C5.95013 26.3694 0 20.481 0 13.2034C0 5.92492 5.95013 0 13.2538 0C17.4578 0 21.1631 1.93818 23.6212 4.93747L19.667 8.37519C18.2419 6.2908 15.8898 4.9742 13.2538 4.9742C8.8711 4.9742 5.27262 8.2657 5.27262 13.2034C5.27262 18.0672 8.8711 21.4319 13.2538 21.4319C15.8898 21.4319 18.2419 20.1151 19.667 18.0307" transform="translate(159.77307 0)" id="Fill-25" fill="#2C2A29" fill-rule="evenodd" stroke="none" />
        <path d="M18.0277 21.3954L18.0277 25.7839L0 25.7839L0 0L5.09485 0L5.09485 21.3954L18.0277 21.3954Z" transform="translate(189.87613 0.2927246)" id="Fill-26" fill="#2C2A29" fill-rule="evenodd" stroke="none" />
        <path d="M20.0139 7.57498C19.9236 9.86565 19.3216 11.3951 18.2062 12.1609C20.4041 13.6724 21.5695 15.6369 21.7024 18.0538C21.647 19.2675 21.4504 20.3515 21.1108 21.3088C20.7698 22.2648 20.2811 23.0715 19.6451 23.7303C19.0089 24.3897 18.232 24.8928 17.3107 25.2418C16.3905 25.5909 15.3267 25.766 14.1227 25.766L0 25.748L0 0L13.3204 0C14.3804 0 15.313 0.168429 16.1233 0.506873C16.9317 0.844637 17.6145 1.33723 18.1733 1.98442C18.73 2.63093 19.1626 3.42411 19.4702 4.36418C19.7767 5.30153 19.9565 6.37309 20.0139 7.57498L20.0139 7.57498ZM5.01999 10.3225L12.0473 10.3225C13.0634 10.3225 13.8368 10.0547 14.365 9.51591C14.8968 8.97889 15.1607 8.17551 15.1607 7.11122C15.1607 6.48261 14.9012 5.99161 14.3831 5.64319C13.8626 5.29341 13.1034 5.11841 12.099 5.11841L5.01999 5.11841L5.01999 10.3225ZM5.01999 21.7292L13.2315 21.7292C14.4153 21.7292 15.3144 21.4166 15.9278 20.7939C16.5433 20.1685 16.8511 19.2382 16.8511 18.0027C16.8511 17.1767 16.549 16.5413 15.9455 16.0947C15.3424 15.6486 14.4542 15.425 13.28 15.425L5.01999 15.425L5.01999 21.7292Z" transform="translate(243.29756 0.3017578)" id="Fill-27" fill="#2C2A29" fill-rule="evenodd" stroke="none" />
        <path d="M21.3791 25.7786L15.62 25.7786L10.0777 15.1069L5.02263 15.123L5.02263 25.7786L0 25.7786L0 0L10.9494 0C16.8087 0 19.7381 2.47497 19.7381 7.42491C19.7381 11.1594 18.1973 13.5305 15.1171 14.539L21.3791 25.7786ZM5.02264 10.3115L12.054 10.3115C13.07 10.3115 13.8425 10.0712 14.3723 9.58744C14.9027 9.10482 15.1684 8.39824 15.1684 7.46655C15.1684 6.60401 14.9082 5.9473 14.39 5.49302C13.8697 5.03919 13.1082 4.8125 12.1034 4.8125L5.02264 4.8125L5.02264 10.3115Z" transform="translate(32.364105 0.34423828)" id="Fill-28" fill="#2C2A29" fill-rule="evenodd" stroke="none" />
        <path d="M22.2324 15.4338C22.2324 21.3589 18.3848 26.0767 11.081 26.0767C3.81291 26.0767 0 21.3954 0 15.4338L0 0L4.98818 0L4.98818 14.0805C4.98818 18.9445 7.09052 21.2485 11.081 21.2485C15.1423 21.2485 17.2444 18.908 17.2444 14.0805L17.2444 0L22.2324 0L22.2324 15.4338Z" transform="translate(213.28123 0.2927246)" id="Fill-29" fill="#2C2A29" fill-rule="evenodd" stroke="none" />
      </g>
    </g>
  </g>
</svg>