<svg xmlns="http://www.w3.org/2000/svg" width="265" height="48" viewBox="0 0 265 48"><defs><clipPath id="jq46a"><path d="M0 48.054h265V.07H0z"/></clipPath></defs><g><g><g><g><path fill="#fff" d="M211.64 43.783c0-2.552 1.87-4.273 4.296-4.273 1.762 0 2.787.978 3.355 2.018l-1.473.743c-.338-.668-1.062-1.2-1.882-1.2-1.473 0-2.534 1.151-2.534 2.712 0 1.56 1.061 2.712 2.534 2.712.82 0 1.544-.533 1.882-1.201l1.473.73c-.568 1.028-1.593 2.031-3.355 2.031-2.426 0-4.296-1.734-4.296-4.272"/></g><g><path fill="#fff" d="M203.95 47.91l-3.837-5.387v5.388H198.4V39.65h1.762l3.728 5.19v-5.19h1.713v8.26z"/></g><g><path fill="#fff" d="M186.53 47.91v-8.26h5.695v1.548h-3.982v1.734h3.898v1.548h-3.898v1.883h3.982v1.548z"/></g><g/><g clip-path="url(#jq46a)"><path fill="#fff" d="M178.4 47.91h1.713v-8.26H178.4z"/></g><g clip-path="url(#jq46a)"><path fill="#fff" d="M170.358 47.91l-1.58-2.934h-1.255v2.935h-1.713V39.65h3.764c1.678 0 2.716 1.127 2.716 2.663 0 1.45-.906 2.242-1.774 2.452l1.822 3.146zm-1.019-6.712h-1.816v2.23h1.816c.678 0 1.199-.421 1.199-1.128 0-.68-.52-1.102-1.199-1.102z"/></g><g clip-path="url(#jq46a)"><path fill="#fff" d="M47.28 43.783c0-2.49 1.774-4.273 4.211-4.273 2.425 0 4.2 1.783 4.2 4.273 0 2.489-1.775 4.272-4.2 4.272zm6.648 0c0-1.549-.952-2.713-2.437-2.713-1.496 0-2.45 1.164-2.45 2.713 0 1.535.954 2.712 2.45 2.712z"/></g><g clip-path="url(#jq46a)"><path fill="#fff" d="M153.95 47.91v-8.26h5.695v1.548h-3.982v1.734h3.898v1.548h-3.898v1.883h3.982v1.548z"/></g><g clip-path="url(#jq46a)"><path fill="#fff" d="M141.58 47.91v-8.26h3.765c1.749 0 2.703 1.214 2.703 2.663 0 1.437-.966 2.65-2.703 2.65h-2.052v2.948zm3.53-6.712h-1.82v2.217h1.82c.68 0 1.2-.42 1.2-1.102 0-.694-.52-1.115-1.2-1.115z"/></g><g clip-path="url(#jq46a)"><path fill="#fff" d="M34.16 43.783c0-2.552 1.87-4.273 4.295-4.273 1.762 0 2.788.978 3.355 2.018l-1.472.743c-.338-.668-1.062-1.2-1.883-1.2-1.472 0-2.533 1.151-2.533 2.712 0 1.56 1.061 2.712 2.533 2.712.821 0 1.545-.533 1.883-1.201l1.472.73c-.567 1.028-1.593 2.031-3.355 2.031-2.425 0-4.295-1.734-4.295-4.272"/></g><g clip-path="url(#jq46a)"><path fill="#fff" d="M61.73 47.91v-8.26h5.695v1.548h-3.981v1.734h3.897v1.548h-3.897v3.43z"/></g><g clip-path="url(#jq46a)"><path fill="#fff" d="M73.45 47.91v-8.26h5.695v1.548h-3.982v1.734h3.898v1.548h-3.898v3.43z"/></g><g clip-path="url(#jq46a)"><path fill="#fff" d="M85.17 47.91v-8.26h5.695v1.548h-3.982v1.734h3.898v1.548h-3.898v1.883h3.982v1.548z"/></g><g clip-path="url(#jq46a)"><path fill="#fff" d="M97.03 47.91v-8.26h5.695v1.548h-3.982v1.734h3.898v1.548h-3.898v1.883h3.982v1.548z"/></g><g clip-path="url(#jq46a)"><path fill="#fff" d="M116.82 47.91v-8.26h5.695v1.548h-3.982v1.734h3.897v1.548h-3.897v1.883h3.982v1.548z"/></g><g clip-path="url(#jq46a)"><path fill="#fff" d="M133.932 47.91l-2.016-3.021-2.027 3.022h-2.039l2.92-4.236-2.739-4.025h2.04l1.845 2.824 1.822-2.824h2.064l-2.74 4.013 2.92 4.248z"/></g><g clip-path="url(#jq46a)"><path fill="#fff" d="M18.848 20.924H7.624l-2.244 5.23H0L11.97.37h2.53l12.008 25.784h-5.38zm-9.406-4.352h7.588L13.218 8.05z"/></g><g clip-path="url(#jq46a)"><path fill="#fff" d="M85.612 13.277c0 7.277-5.95 13.166-13.361 13.166-7.376 0-13.361-5.889-13.361-13.166C58.89 5.999 64.875.11 72.25.11zm-5.202 0c0-4.535-3.67-8.266-8.16-8.266-4.488 0-8.122 3.73-8.122 8.266 0 4.571 3.634 8.265 8.123 8.265z"/></g><g clip-path="url(#jq46a)"><path fill="#fff" d="M118.315.37v25.784h-5.13V11.89l-7.767 11.19-7.803-11.19v14.263H92.52V.37h2.494l10.404 14.775L115.82.37z"/></g><g clip-path="url(#jq46a)"><path fill="#fff" d="M142.858 20.924h-11.224l-2.244 5.23h-5.38L135.981.37h2.53l12.007 25.784h-5.38zm-9.407-4.352h7.59l-3.813-8.522z"/></g><g clip-path="url(#jq46a)"><path fill="#fff" d="M179.437 18.1l3.954 3.438a13.321 13.321 0 0 1-10.367 4.901c-7.304 0-13.254-5.888-13.254-13.166 0-7.278 5.95-13.203 13.254-13.203 4.204 0 7.91 1.938 10.367 4.937l-3.954 3.438c-1.425-2.084-3.777-3.4-6.413-3.4-4.383 0-7.981 3.29-7.981 8.228 0 4.864 3.598 8.229 7.98 8.229 2.637 0 4.989-1.317 6.414-3.401"/></g><g clip-path="url(#jq46a)"><path fill="#fff" d="M207.908 21.765v4.389H189.88V.37h5.095v21.395z"/></g><g clip-path="url(#jq46a)"><path fill="#fff" d="M248.32 15.799h8.26c1.174 0 2.062.224 2.665.671.604.448.906 1.085.906 1.914 0 1.239-.308 2.172-.923 2.799-.614.624-1.513.938-2.697.938h-8.211zm0-10.303h7.079c1.004 0 1.764.176 2.284.526.518.349.778.84.778 1.47 0 1.066-.264 1.87-.796 2.409-.528.54-1.302.807-2.318.807h-7.027zm14.994 2.459c-.058-1.202-.237-2.273-.544-3.21-.307-.94-.74-1.734-1.297-2.38a5.435 5.435 0 0 0-2.05-1.478c-.81-.339-1.743-.507-2.803-.507H243.3v25.748l14.123.018c1.204 0 2.267-.175 3.188-.524.921-.35 1.698-.852 2.334-1.512.636-.658 1.125-1.465 1.466-2.421.34-.957.536-2.041.591-3.255-.133-2.417-1.298-4.382-3.496-5.893 1.116-.766 1.718-2.295 1.808-4.586z"/></g><g clip-path="url(#jq46a)"><path fill="#fff" d="M37.383 5.233h7.08c1.005 0 1.767.226 2.287.68.518.454.778 1.111.778 1.974 0 .931-.265 1.638-.796 2.12-.53.484-1.302.725-2.318.725h-7.031zm10.094 9.726c3.08-1.008 4.621-3.38 4.621-7.114 0-4.95-2.93-7.425-8.789-7.425H32.36v25.779h5.023V15.543l5.055-.016 5.542 10.672h5.76z"/></g><g clip-path="url(#jq46a)"><path fill="#fff" d="M235.512 15.804c0 5.925-3.847 10.643-11.151 10.643-7.268 0-11.081-4.682-11.081-10.643V.37h4.988v14.08c0 4.864 2.103 7.169 6.093 7.169 4.061 0 6.163-2.341 6.163-7.169V.37h4.988z"/></g><g clip-path="url(#jq46a)"><path fill="#fff" d="M224 40v8h6v-1.5h-4.195v-1.822h4.106v-1.5h-4.106v-1.68H230V40z"/></g></g></g></g></svg>