<svg xmlns="http://www.w3.org/2000/svg" width="24" height="18" viewBox="0 0 24 18"><g><g><g><path fill="#fff" d="M17 11.243C17 10.346 18.44 9 19.4 9s1.6.598 1.6 1.495c0 .898-.64 1.496-1.6 1.496-.96 0-2.4.15-2.4-.748zm-12.4.748c-.96 0-1.6-.598-1.6-1.496C3 9.598 3.64 9 4.6 9 5.56 9 7 10.346 7 11.243c0 .897-1.44.748-2.4.748zm2.334-7.482C7.276 3.596 8.104 3 9.024 3h5.953c.92 0 1.747.598 2.089 1.508L18 7H6zm16.503.741H20.63l-.78-1.95A5.223 5.223 0 0 0 14.976 0H9.023A5.225 5.225 0 0 0 4.15 3.3l-.78 1.95H.563a.562.562 0 0 0-.546.699l.281 1.125c.063.25.288.426.546.426h.94A2.979 2.979 0 0 0 .75 9.75V12c0 .756.289 1.438.75 1.965V16.5A1.5 1.5 0 0 0 3 18h1.5A1.5 1.5 0 0 0 6 16.5V15h12v1.5a1.5 1.5 0 0 0 1.5 1.5H21a1.5 1.5 0 0 0 1.5-1.5v-2.535c.461-.527.75-1.209.75-1.965V9.75c0-.9-.406-1.7-1.035-2.25h.941a.562.562 0 0 0 .546-.426l.281-1.125a.563.563 0 0 0-.546-.699z"/></g></g></g></svg>