<svg width="14px" height="18px" viewBox="0 0 14 18" fill="currentColor"  xmlns="http://www.w3.org/2000/svg">
    <path d="M5.69999 1.7C5.23055 1.7 4.84999 2.08056 4.84999 2.55L4.84999 4.85L3.14999 4.85L3.14999 2.55C3.14999 1.14167 4.29167 0 5.69999 0L8.29999 0C9.70832 0 10.85 1.14167 10.85 2.55L10.85 4.85L9.14999 4.85L9.14999 2.55C9.14999 2.08056 8.76944 1.7 8.29999 1.7L5.69999 1.7L5.69999 1.7ZM12.3 6.55005L1.70001 6.55005L1.70001 14.85C1.70001 15.568 2.28204 16.15 3.00001 16.15L11 16.15C11.718 16.15 12.3 15.568 12.3 14.85L12.3 6.55005ZM0 4.8501L0 14.8501C0 16.507 1.34315 17.8501 3 17.8501L11 17.8501C12.6569 17.8501 14 16.507 14 14.8501L14 4.8501L0 4.8501Z" fill-rule="evenodd" stroke="none" />
</svg>