<svg width="36" height="36" viewBox="0 0 36 36" fill="none" xmlns="http://www.w3.org/2000/svg">
<path d="M18.0021 4C9.16572 4 2.00415 9.81875 2.00415 17C2.00415 19.975 3.24774 22.7 5.30997 24.8937C4.37884 27.3563 2.44159 29.4438 2.41034 29.4688C1.9979 29.9063 1.88541 30.5438 2.12288 31.0938C2.36035 31.6437 2.90403 32 3.50395 32C7.3472 32 10.3781 30.3937 12.1966 29.1063C14.0026 29.675 15.9523 30 18.0021 30C26.8384 30 34 24.1812 34 17C34 9.81875 26.8384 4 18.0021 4ZM18 26.5633C16.3313 26.5633 14.6812 26.3127 13.1 25.8236L11.6812 25.3834L10.4625 26.2271C9.56875 26.8445 8.34375 27.5354 6.86875 28C7.325 27.2603 7.76875 26.4288 8.1125 25.5424L8.775 23.8245L7.4875 22.4917C6.35625 21.3118 5 19.3616 5 16.7817C5 11.3895 10.8313 7 18 7C25.1687 7 31 11.3895 31 16.7817C31 22.1738 25.1687 26.5633 18 26.5633Z" fill="white"/>
</svg>
