<svg xmlns="http://www.w3.org/2000/svg" width="19" height="18" viewBox="0 0 19 18"><g><g><path fill="#2c3136" d="M15.843 4.406c0 .592-.49 1.071-1.093 1.071-.605 0-1.096-.48-1.096-1.07 0-.592.49-1.071 1.096-1.071.604 0 1.093.48 1.093 1.07zm-2.922 4.737c0-1.636-1.361-2.961-3.04-2.961-1.68 0-3.04 1.325-3.04 2.96 0 1.636 1.36 2.961 3.04 2.961 1.679 0 3.04-1.325 3.04-2.96zm1.633.005c0 2.522-2.095 4.566-4.678 4.566-2.584 0-4.679-2.045-4.679-4.567 0-2.521 2.095-4.566 4.679-4.566 2.583 0 4.678 2.045 4.678 4.567zM9.881.26c2.477 0 2.788.01 3.761.054 3.316.148 5.156 1.945 5.305 5.17.044.948.054 1.25.054 3.663 0 2.414-.01 2.717-.055 3.665-.15 3.23-1.995 5.022-5.305 5.17-.972.043-1.283.053-3.76.053s-2.787-.01-3.761-.053C2.805 17.834.967 16.04.815 12.812.77 11.864.76 11.562.76 9.148s.01-2.716.055-3.665C.968 2.253 2.808.46 6.121.313 7.094.27 7.404.26 9.88.26zM6.198 1.912c-2.476.11-3.628 1.253-3.742 3.644-.043.938-.053 1.218-.053 3.591 0 2.375.01 2.655.053 3.592.113 2.386 1.262 3.534 3.742 3.645.962.043 1.25.051 3.688.051s2.726-.008 3.688-.051c2.476-.11 3.628-1.255 3.742-3.644.043-.937.052-1.218.052-3.592 0-2.373-.008-2.654-.052-3.591-.113-2.392-1.268-3.534-3.742-3.644-.962-.043-1.251-.052-3.688-.052-2.437 0-2.725.009-3.688.051z"/></g></g></svg>