<svg width="36" height="36" viewBox="0 0 36 36" fill="none" xmlns="http://www.w3.org/2000/svg">
<path d="M32.625 5H3.375C1.51102 5 0 6.45505 0 8.25V27.75C0 29.5449 1.51102 31 3.375 31H32.625C34.489 31 36 29.5449 36 27.75V8.25C36 6.45505 34.489 5 32.625 5ZM32.625 8.25V11.0128C31.0485 12.2491 28.5351 14.1715 23.1619 18.2231C21.9777 19.12 19.6321 21.2748 18 21.2497C16.3682 21.2751 14.0218 19.1197 12.8382 18.2231C7.46578 14.1721 4.95176 12.2493 3.375 11.0128V8.25H32.625ZM3.375 27.75V15.1832C4.98614 16.419 7.27095 18.1531 10.7535 20.7791C12.2903 21.944 14.9816 24.5156 18 24.5C21.0035 24.5156 23.6608 21.9813 25.2459 20.7796C28.7284 18.1537 31.0138 16.4191 32.625 15.1833V27.75H3.375Z" fill="white"/>
</svg>
