<svg width="24" height="24" viewBox="0 0 24 24" fill="none" xmlns="http://www.w3.org/2000/svg">
<path fill-rule="evenodd" clip-rule="evenodd" d="M18.1509 18.5108L15.3504 15.5907C15.1044 15.3352 14.7191 15.2731 14.4051 15.4384L12.103 16.647C10.1999 14.5154 9.09801 11.7879 8.98615 8.93258L11.4818 8.20281C11.8228 8.10424 12.0571 7.79151 12.056 7.43654L12.0419 3.39063C12.0381 3.00536 11.761 2.67721 11.3818 2.60902L7.89175 1.9933C7.52628 1.92887 7.16473 2.12525 7.0198 2.46688C3.69205 10.3066 7.35428 19.3458 15.1817 22.6683C15.5234 22.8136 15.9201 22.7038 16.1382 22.4034L18.2211 19.5361C18.4466 19.2218 18.4172 18.7916 18.1509 18.5108Z" fill="white"/>
</svg>
