<svg width="15px" height="18px" viewBox="0 0 15 18" fill="currentColor"
    xmlns="http://www.w3.org/2000/svg">
    <path d="M7.28601 6.92295C8.72102 6.91469 9.87777 5.74496 9.87001 4.30995C9.87611 2.87611 8.71984 1.70821 7.28601 1.69995C5.85101 1.70711 4.69337 2.87595 4.70001 4.31095C4.69656 5.00025 4.96707 5.66269 5.45204 6.15254C5.93701 6.64239 6.59671 6.91951 7.28601 6.92295L7.28601 6.92295ZM7.286 8.623C9.653 8.623 11.571 6.693 11.571 4.311C11.571 1.931 9.653 0 7.286 0C4.919 0 3 1.93 3 4.311C3 6.692 4.919 8.623 7.286 8.623ZM11.644 11.7549L3.35599 11.7549C2.67651 11.755 2.11174 12.2784 2.05999 12.9559L1.83499 15.8999L13.165 15.8999L12.94 12.9559C12.8878 12.2788 12.3231 11.756 11.644 11.7559L11.644 11.7549ZM14.635 12.8259C14.5148 11.2629 13.2116 10.056 11.644 10.0559L3.356 10.0559C1.78881 10.0565 0.486151 11.2633 0.366 12.8259L0 17.5999L15 17.5999L14.635 12.8259Z" fill-rule="evenodd" stroke="none" />
</svg>